<mxfile host="Electron" agent="Mozilla/5.0 (Windows NT 10.0; Win64; x64) AppleWebKit/537.36 (KHTML, like Gecko) draw.io/26.0.9 Chrome/128.0.6613.186 Electron/32.2.5 Safari/537.36" version="26.0.9">
  <diagram name="PÃ¡gina-1" id="sVIEAfAeJXPN8LJEBK2q">
    <mxGraphModel dx="3520" dy="3549" grid="1" gridSize="10" guides="1" tooltips="1" connect="1" arrows="1" fold="1" page="1" pageScale="1" pageWidth="827" pageHeight="1169" math="0" shadow="0">
      <root>
        <mxCell id="0" />
        <mxCell id="1" parent="0" />
        <mxCell id="324FYDJHdlTDjTDhxgua-1" value="" style="ellipse;whiteSpace=wrap;html=1;aspect=fixed;fillColor=#60a917;fontColor=#ffffff;strokeColor=#2D7600;" vertex="1" parent="1">
          <mxGeometry x="120" y="-130" width="80" height="80" as="geometry" />
        </mxCell>
        <mxCell id="324FYDJHdlTDjTDhxgua-2" value="informe as notas" style="shape=parallelogram;perimeter=parallelogramPerimeter;whiteSpace=wrap;html=1;fixedSize=1;" vertex="1" parent="1">
          <mxGeometry x="80" y="40" width="160" height="80" as="geometry" />
        </mxCell>
        <mxCell id="324FYDJHdlTDjTDhxgua-3" value="" style="endArrow=classic;html=1;rounded=0;" edge="1" parent="1">
          <mxGeometry width="50" height="50" relative="1" as="geometry">
            <mxPoint x="160" y="290" as="sourcePoint" />
            <mxPoint x="160" y="350" as="targetPoint" />
          </mxGeometry>
        </mxCell>
        <mxCell id="324FYDJHdlTDjTDhxgua-4" value="nota 1 = X" style="whiteSpace=wrap;html=1;" vertex="1" parent="1">
          <mxGeometry x="80" y="360" width="160" height="80" as="geometry" />
        </mxCell>
        <mxCell id="324FYDJHdlTDjTDhxgua-5" value="" style="endArrow=classic;html=1;rounded=0;" edge="1" parent="1">
          <mxGeometry width="50" height="50" relative="1" as="geometry">
            <mxPoint x="160" y="450" as="sourcePoint" />
            <mxPoint x="160" y="510" as="targetPoint" />
          </mxGeometry>
        </mxCell>
        <mxCell id="324FYDJHdlTDjTDhxgua-6" value="nota 2 = Y" style="rounded=0;whiteSpace=wrap;html=1;" vertex="1" parent="1">
          <mxGeometry x="80" y="520" width="160" height="80" as="geometry" />
        </mxCell>
        <mxCell id="324FYDJHdlTDjTDhxgua-7" value="" style="endArrow=classic;html=1;rounded=0;" edge="1" parent="1">
          <mxGeometry width="50" height="50" relative="1" as="geometry">
            <mxPoint x="160" y="610" as="sourcePoint" />
            <mxPoint x="160" y="670" as="targetPoint" />
          </mxGeometry>
        </mxCell>
        <mxCell id="324FYDJHdlTDjTDhxgua-8" value="nota 3 = Z" style="whiteSpace=wrap;html=1;" vertex="1" parent="1">
          <mxGeometry x="80" y="680" width="160" height="80" as="geometry" />
        </mxCell>
        <mxCell id="324FYDJHdlTDjTDhxgua-9" value="" style="endArrow=none;html=1;rounded=0;" edge="1" parent="1">
          <mxGeometry width="50" height="50" relative="1" as="geometry">
            <mxPoint x="320" y="720" as="sourcePoint" />
            <mxPoint x="320" y="400" as="targetPoint" />
          </mxGeometry>
        </mxCell>
        <mxCell id="324FYDJHdlTDjTDhxgua-10" value="" style="endArrow=none;html=1;rounded=0;" edge="1" parent="1">
          <mxGeometry width="50" height="50" relative="1" as="geometry">
            <mxPoint x="240" y="400" as="sourcePoint" />
            <mxPoint x="320" y="400" as="targetPoint" />
          </mxGeometry>
        </mxCell>
        <mxCell id="324FYDJHdlTDjTDhxgua-11" value="" style="endArrow=none;html=1;rounded=0;" edge="1" parent="1">
          <mxGeometry width="50" height="50" relative="1" as="geometry">
            <mxPoint x="240" y="720" as="sourcePoint" />
            <mxPoint x="320" y="720" as="targetPoint" />
          </mxGeometry>
        </mxCell>
        <mxCell id="324FYDJHdlTDjTDhxgua-12" value="" style="endArrow=none;html=1;rounded=0;" edge="1" parent="1">
          <mxGeometry width="50" height="50" relative="1" as="geometry">
            <mxPoint x="240" y="560" as="sourcePoint" />
            <mxPoint x="320" y="560" as="targetPoint" />
          </mxGeometry>
        </mxCell>
        <mxCell id="324FYDJHdlTDjTDhxgua-13" value="" style="endArrow=classic;html=1;rounded=0;" edge="1" parent="1">
          <mxGeometry width="50" height="50" relative="1" as="geometry">
            <mxPoint x="320" y="720" as="sourcePoint" />
            <mxPoint x="320" y="990" as="targetPoint" />
          </mxGeometry>
        </mxCell>
        <mxCell id="324FYDJHdlTDjTDhxgua-14" value="X; Y; Z; igual, maior, ou igual a M" style="whiteSpace=wrap;html=1;" vertex="1" parent="1">
          <mxGeometry x="240" y="1000" width="160" height="80" as="geometry" />
        </mxCell>
        <mxCell id="324FYDJHdlTDjTDhxgua-15" value="media = M" style="whiteSpace=wrap;html=1;" vertex="1" parent="1">
          <mxGeometry x="80" y="840" width="160" height="80" as="geometry" />
        </mxCell>
        <mxCell id="324FYDJHdlTDjTDhxgua-16" value="" style="endArrow=classic;html=1;rounded=0;" edge="1" parent="1">
          <mxGeometry width="50" height="50" relative="1" as="geometry">
            <mxPoint x="160" y="770" as="sourcePoint" />
            <mxPoint x="160" y="830" as="targetPoint" />
          </mxGeometry>
        </mxCell>
        <mxCell id="324FYDJHdlTDjTDhxgua-17" value="" style="endArrow=none;html=1;rounded=0;" edge="1" parent="1">
          <mxGeometry width="50" height="50" relative="1" as="geometry">
            <mxPoint x="240" y="880" as="sourcePoint" />
            <mxPoint x="320" y="880" as="targetPoint" />
          </mxGeometry>
        </mxCell>
        <mxCell id="324FYDJHdlTDjTDhxgua-19" value="" style="endArrow=classic;html=1;rounded=0;" edge="1" parent="1">
          <mxGeometry width="50" height="50" relative="1" as="geometry">
            <mxPoint x="410" y="1040" as="sourcePoint" />
            <mxPoint x="470" y="1040" as="targetPoint" />
          </mxGeometry>
        </mxCell>
        <mxCell id="324FYDJHdlTDjTDhxgua-24" value="" style="endArrow=classic;html=1;rounded=0;" edge="1" parent="1">
          <mxGeometry width="50" height="50" relative="1" as="geometry">
            <mxPoint x="320" y="1090" as="sourcePoint" />
            <mxPoint x="320" y="1150" as="targetPoint" />
          </mxGeometry>
        </mxCell>
        <mxCell id="324FYDJHdlTDjTDhxgua-25" value="" style="endArrow=classic;html=1;rounded=0;" edge="1" parent="1">
          <mxGeometry width="50" height="50" relative="1" as="geometry">
            <mxPoint x="230" y="1040" as="sourcePoint" />
            <mxPoint x="170" y="1040" as="targetPoint" />
          </mxGeometry>
        </mxCell>
        <mxCell id="324FYDJHdlTDjTDhxgua-28" value="" style="endArrow=none;html=1;rounded=0;" edge="1" parent="1">
          <mxGeometry width="50" height="50" relative="1" as="geometry">
            <mxPoint x="40" y="1320" as="sourcePoint" />
            <mxPoint x="560" y="1320" as="targetPoint" />
          </mxGeometry>
        </mxCell>
        <mxCell id="324FYDJHdlTDjTDhxgua-29" value="" style="endArrow=none;html=1;rounded=0;" edge="1" parent="1">
          <mxGeometry width="50" height="50" relative="1" as="geometry">
            <mxPoint x="320" y="1320" as="sourcePoint" />
            <mxPoint x="320" y="1240" as="targetPoint" />
          </mxGeometry>
        </mxCell>
        <mxCell id="324FYDJHdlTDjTDhxgua-30" value="" style="endArrow=classic;html=1;rounded=0;" edge="1" parent="1">
          <mxGeometry width="50" height="50" relative="1" as="geometry">
            <mxPoint x="560" y="1320" as="sourcePoint" />
            <mxPoint x="630" y="1320" as="targetPoint" />
          </mxGeometry>
        </mxCell>
        <mxCell id="324FYDJHdlTDjTDhxgua-31" value="X/Y/Z = V" style="whiteSpace=wrap;html=1;" vertex="1" parent="1">
          <mxGeometry x="640" y="1280" width="160" height="80" as="geometry" />
        </mxCell>
        <mxCell id="324FYDJHdlTDjTDhxgua-37" value="" style="endArrow=classic;html=1;rounded=0;" edge="1" parent="1">
          <mxGeometry width="50" height="50" relative="1" as="geometry">
            <mxPoint x="810" y="1320" as="sourcePoint" />
            <mxPoint x="870" y="1320" as="targetPoint" />
          </mxGeometry>
        </mxCell>
        <mxCell id="324FYDJHdlTDjTDhxgua-40" value="" style="endArrow=none;html=1;rounded=0;entryX=0;entryY=1;entryDx=0;entryDy=0;" edge="1" parent="1" target="324FYDJHdlTDjTDhxgua-74">
          <mxGeometry width="50" height="50" relative="1" as="geometry">
            <mxPoint x="280" y="1320" as="sourcePoint" />
            <mxPoint x="280" y="1240" as="targetPoint" />
          </mxGeometry>
        </mxCell>
        <mxCell id="324FYDJHdlTDjTDhxgua-41" value="" style="endArrow=none;html=1;rounded=0;entryX=1;entryY=1;entryDx=0;entryDy=0;" edge="1" parent="1" target="324FYDJHdlTDjTDhxgua-74">
          <mxGeometry width="50" height="50" relative="1" as="geometry">
            <mxPoint x="360" y="1320" as="sourcePoint" />
            <mxPoint x="360" y="1240" as="targetPoint" />
          </mxGeometry>
        </mxCell>
        <mxCell id="324FYDJHdlTDjTDhxgua-47" value="maior" style="text;html=1;align=center;verticalAlign=middle;resizable=0;points=[];autosize=1;strokeColor=none;fillColor=none;textDirection=vertical-rl;" vertex="1" parent="1">
          <mxGeometry x="245" y="1280" width="50" height="30" as="geometry" />
        </mxCell>
        <mxCell id="324FYDJHdlTDjTDhxgua-48" value="menor" style="text;html=1;align=center;verticalAlign=middle;resizable=0;points=[];autosize=1;strokeColor=none;fillColor=none;textDirection=vertical-rl;" vertex="1" parent="1">
          <mxGeometry x="295" y="1280" width="60" height="30" as="geometry" />
        </mxCell>
        <mxCell id="324FYDJHdlTDjTDhxgua-49" value="igual" style="text;html=1;align=center;verticalAlign=middle;resizable=0;points=[];autosize=1;strokeColor=none;fillColor=none;textDirection=vertical-rl;" vertex="1" parent="1">
          <mxGeometry x="345" y="1280" width="50" height="30" as="geometry" />
        </mxCell>
        <mxCell id="324FYDJHdlTDjTDhxgua-55" value="" style="endArrow=none;html=1;rounded=0;" edge="1" parent="1">
          <mxGeometry width="50" height="50" relative="1" as="geometry">
            <mxPoint x="586.6666666666667" y="1200" as="sourcePoint" />
            <mxPoint x="586.6666666666667" y="1200" as="targetPoint" />
          </mxGeometry>
        </mxCell>
        <mxCell id="324FYDJHdlTDjTDhxgua-59" value="" style="endArrow=none;html=1;rounded=0;" edge="1" parent="1">
          <mxGeometry width="50" height="50" relative="1" as="geometry">
            <mxPoint x="80" y="1320" as="sourcePoint" />
            <mxPoint x="80" y="1080" as="targetPoint" />
          </mxGeometry>
        </mxCell>
        <mxCell id="324FYDJHdlTDjTDhxgua-60" value="" style="endArrow=none;html=1;rounded=0;entryX=0;entryY=1;entryDx=0;entryDy=0;" edge="1" parent="1" target="324FYDJHdlTDjTDhxgua-75">
          <mxGeometry width="50" height="50" relative="1" as="geometry">
            <mxPoint x="40" y="1320" as="sourcePoint" />
            <mxPoint x="40" y="1080" as="targetPoint" />
          </mxGeometry>
        </mxCell>
        <mxCell id="324FYDJHdlTDjTDhxgua-61" value="" style="endArrow=none;html=1;rounded=0;entryX=1;entryY=1;entryDx=0;entryDy=0;" edge="1" parent="1" target="324FYDJHdlTDjTDhxgua-75">
          <mxGeometry width="50" height="50" relative="1" as="geometry">
            <mxPoint x="120" y="1320" as="sourcePoint" />
            <mxPoint x="120" y="1080" as="targetPoint" />
          </mxGeometry>
        </mxCell>
        <mxCell id="324FYDJHdlTDjTDhxgua-62" value="maior" style="text;html=1;align=center;verticalAlign=middle;resizable=0;points=[];autosize=1;strokeColor=none;fillColor=none;textDirection=vertical-rl;" vertex="1" parent="1">
          <mxGeometry x="10" y="1190" width="50" height="30" as="geometry" />
        </mxCell>
        <mxCell id="324FYDJHdlTDjTDhxgua-63" value="menor" style="text;html=1;align=center;verticalAlign=middle;resizable=0;points=[];autosize=1;strokeColor=none;fillColor=none;textDirection=vertical-rl;" vertex="1" parent="1">
          <mxGeometry x="60" y="1190" width="60" height="30" as="geometry" />
        </mxCell>
        <mxCell id="324FYDJHdlTDjTDhxgua-64" value="igual" style="text;html=1;align=center;verticalAlign=middle;resizable=0;points=[];autosize=1;strokeColor=none;fillColor=none;textDirection=vertical-rl;" vertex="1" parent="1">
          <mxGeometry x="110" y="1190" width="50" height="30" as="geometry" />
        </mxCell>
        <mxCell id="324FYDJHdlTDjTDhxgua-65" value="" style="endArrow=none;html=1;rounded=0;" edge="1" parent="1">
          <mxGeometry width="50" height="50" relative="1" as="geometry">
            <mxPoint x="560" y="1320" as="sourcePoint" />
            <mxPoint x="560" y="1080" as="targetPoint" />
          </mxGeometry>
        </mxCell>
        <mxCell id="324FYDJHdlTDjTDhxgua-66" value="" style="endArrow=none;html=1;rounded=0;entryX=0;entryY=1;entryDx=0;entryDy=0;" edge="1" parent="1" target="324FYDJHdlTDjTDhxgua-73">
          <mxGeometry width="50" height="50" relative="1" as="geometry">
            <mxPoint x="520" y="1320" as="sourcePoint" />
            <mxPoint x="520" y="1080" as="targetPoint" />
          </mxGeometry>
        </mxCell>
        <mxCell id="324FYDJHdlTDjTDhxgua-67" value="" style="endArrow=none;html=1;rounded=0;entryX=1;entryY=1;entryDx=0;entryDy=0;" edge="1" parent="1" target="324FYDJHdlTDjTDhxgua-73">
          <mxGeometry width="50" height="50" relative="1" as="geometry">
            <mxPoint x="600" y="1320" as="sourcePoint" />
            <mxPoint x="600" y="1080" as="targetPoint" />
          </mxGeometry>
        </mxCell>
        <mxCell id="324FYDJHdlTDjTDhxgua-68" value="maior" style="text;html=1;align=center;verticalAlign=middle;resizable=0;points=[];autosize=1;strokeColor=none;fillColor=none;textDirection=vertical-rl;" vertex="1" parent="1">
          <mxGeometry x="490" y="1190" width="50" height="30" as="geometry" />
        </mxCell>
        <mxCell id="324FYDJHdlTDjTDhxgua-69" value="menor" style="text;html=1;align=center;verticalAlign=middle;resizable=0;points=[];autosize=1;strokeColor=none;fillColor=none;textDirection=vertical-rl;" vertex="1" parent="1">
          <mxGeometry x="540" y="1190" width="60" height="30" as="geometry" />
        </mxCell>
        <mxCell id="324FYDJHdlTDjTDhxgua-70" value="igual" style="text;html=1;align=center;verticalAlign=middle;resizable=0;points=[];autosize=1;strokeColor=none;fillColor=none;textDirection=vertical-rl;" vertex="1" parent="1">
          <mxGeometry x="590" y="1190" width="50" height="30" as="geometry" />
        </mxCell>
        <mxCell id="324FYDJHdlTDjTDhxgua-73" value="X maior, menor ou igual a M?" style="rhombus;whiteSpace=wrap;html=1;fontSize=10;" vertex="1" parent="1">
          <mxGeometry x="480" y="1000" width="160" height="80" as="geometry" />
        </mxCell>
        <mxCell id="324FYDJHdlTDjTDhxgua-74" value="Y igual,maior ou menor que M?" style="rhombus;whiteSpace=wrap;html=1;fontSize=9;" vertex="1" parent="1">
          <mxGeometry x="240" y="1160" width="160" height="80" as="geometry" />
        </mxCell>
        <mxCell id="324FYDJHdlTDjTDhxgua-75" value="Z menor, maior ou igual a M?" style="rhombus;whiteSpace=wrap;html=1;fontSize=10;" vertex="1" parent="1">
          <mxGeometry y="1000" width="160" height="80" as="geometry" />
        </mxCell>
        <mxCell id="324FYDJHdlTDjTDhxgua-76" value="V maior, menor, ou igual a M?" style="rhombus;whiteSpace=wrap;html=1;fontSize=10;" vertex="1" parent="1">
          <mxGeometry x="880" y="1280" width="160" height="80" as="geometry" />
        </mxCell>
        <mxCell id="324FYDJHdlTDjTDhxgua-77" value="" style="endArrow=none;html=1;rounded=0;" edge="1" parent="1">
          <mxGeometry width="50" height="50" relative="1" as="geometry">
            <mxPoint x="1040" y="1320" as="sourcePoint" />
            <mxPoint x="1120" y="1320" as="targetPoint" />
          </mxGeometry>
        </mxCell>
        <mxCell id="324FYDJHdlTDjTDhxgua-78" value="" style="endArrow=none;html=1;rounded=0;" edge="1" parent="1">
          <mxGeometry width="50" height="50" relative="1" as="geometry">
            <mxPoint x="1120" y="1320" as="sourcePoint" />
            <mxPoint x="1120" y="1160" as="targetPoint" />
          </mxGeometry>
        </mxCell>
        <mxCell id="324FYDJHdlTDjTDhxgua-80" value="V igual a M" style="whiteSpace=wrap;html=1;" vertex="1" parent="1">
          <mxGeometry x="1200" y="1283" width="160" height="80" as="geometry" />
        </mxCell>
        <mxCell id="324FYDJHdlTDjTDhxgua-81" value="V maior que M" style="whiteSpace=wrap;html=1;" vertex="1" parent="1">
          <mxGeometry x="1200" y="1120" width="160" height="80" as="geometry" />
        </mxCell>
        <mxCell id="324FYDJHdlTDjTDhxgua-82" value="" style="endArrow=classic;html=1;rounded=0;" edge="1" parent="1">
          <mxGeometry width="50" height="50" relative="1" as="geometry">
            <mxPoint x="1120" y="1160" as="sourcePoint" />
            <mxPoint x="1190" y="1160" as="targetPoint" />
          </mxGeometry>
        </mxCell>
        <mxCell id="324FYDJHdlTDjTDhxgua-83" value="" style="endArrow=none;html=1;rounded=0;" edge="1" parent="1">
          <mxGeometry width="50" height="50" relative="1" as="geometry">
            <mxPoint x="1120" y="1480" as="sourcePoint" />
            <mxPoint x="1120" y="1320" as="targetPoint" />
          </mxGeometry>
        </mxCell>
        <mxCell id="324FYDJHdlTDjTDhxgua-84" value="" style="endArrow=classic;html=1;rounded=0;" edge="1" parent="1">
          <mxGeometry width="50" height="50" relative="1" as="geometry">
            <mxPoint x="1120" y="1480" as="sourcePoint" />
            <mxPoint x="1190" y="1480" as="targetPoint" />
          </mxGeometry>
        </mxCell>
        <mxCell id="324FYDJHdlTDjTDhxgua-85" value="" style="endArrow=classic;html=1;rounded=0;" edge="1" parent="1">
          <mxGeometry width="50" height="50" relative="1" as="geometry">
            <mxPoint x="1120" y="1320" as="sourcePoint" />
            <mxPoint x="1190" y="1320" as="targetPoint" />
          </mxGeometry>
        </mxCell>
        <mxCell id="324FYDJHdlTDjTDhxgua-86" value="V menor que M" style="whiteSpace=wrap;html=1;" vertex="1" parent="1">
          <mxGeometry x="1200" y="1440" width="160" height="80" as="geometry" />
        </mxCell>
        <mxCell id="324FYDJHdlTDjTDhxgua-87" value="MAIOR" style="text;html=1;align=center;verticalAlign=middle;resizable=0;points=[];autosize=1;strokeColor=none;fillColor=none;fontSize=9;" vertex="1" parent="1">
          <mxGeometry x="1120" y="1140" width="50" height="20" as="geometry" />
        </mxCell>
        <mxCell id="324FYDJHdlTDjTDhxgua-88" value="MENOR" style="text;html=1;align=center;verticalAlign=middle;resizable=0;points=[];autosize=1;strokeColor=none;fillColor=none;fontSize=9;" vertex="1" parent="1">
          <mxGeometry x="1115" y="1460" width="60" height="20" as="geometry" />
        </mxCell>
        <mxCell id="324FYDJHdlTDjTDhxgua-89" value="IGUAL" style="text;html=1;align=center;verticalAlign=middle;resizable=0;points=[];autosize=1;strokeColor=none;fillColor=none;fontSize=9;" vertex="1" parent="1">
          <mxGeometry x="1125" y="1300" width="50" height="20" as="geometry" />
        </mxCell>
        <mxCell id="324FYDJHdlTDjTDhxgua-90" value="" style="endArrow=none;html=1;rounded=0;" edge="1" parent="1">
          <mxGeometry width="50" height="50" relative="1" as="geometry">
            <mxPoint x="1720" y="1480" as="sourcePoint" />
            <mxPoint x="1720" y="1160" as="targetPoint" />
          </mxGeometry>
        </mxCell>
        <mxCell id="324FYDJHdlTDjTDhxgua-91" value="" style="endArrow=none;html=1;rounded=0;" edge="1" parent="1">
          <mxGeometry width="50" height="50" relative="1" as="geometry">
            <mxPoint x="1360" y="1160" as="sourcePoint" />
            <mxPoint x="1720" y="1160" as="targetPoint" />
          </mxGeometry>
        </mxCell>
        <mxCell id="324FYDJHdlTDjTDhxgua-93" value="" style="endArrow=none;html=1;rounded=0;" edge="1" parent="1">
          <mxGeometry width="50" height="50" relative="1" as="geometry">
            <mxPoint x="1360" y="1319.5" as="sourcePoint" />
            <mxPoint x="1720" y="1320" as="targetPoint" />
          </mxGeometry>
        </mxCell>
        <mxCell id="324FYDJHdlTDjTDhxgua-95" value="" style="endArrow=classic;html=1;rounded=0;" edge="1" parent="1">
          <mxGeometry width="50" height="50" relative="1" as="geometry">
            <mxPoint x="1370" y="1479" as="sourcePoint" />
            <mxPoint x="1430" y="1479" as="targetPoint" />
          </mxGeometry>
        </mxCell>
        <mxCell id="324FYDJHdlTDjTDhxgua-96" value="nota menor que media" style="whiteSpace=wrap;html=1;" vertex="1" parent="1">
          <mxGeometry x="1440" y="1441.5" width="160" height="77" as="geometry" />
        </mxCell>
        <mxCell id="324FYDJHdlTDjTDhxgua-97" value="nota = V" style="whiteSpace=wrap;html=1;" vertex="1" parent="1">
          <mxGeometry x="80" y="200" width="160" height="80" as="geometry" />
        </mxCell>
        <mxCell id="324FYDJHdlTDjTDhxgua-98" value="" style="endArrow=classic;html=1;rounded=0;" edge="1" parent="1">
          <mxGeometry width="50" height="50" relative="1" as="geometry">
            <mxPoint x="1720" y="1480" as="sourcePoint" />
            <mxPoint x="1720" y="1550" as="targetPoint" />
          </mxGeometry>
        </mxCell>
        <mxCell id="324FYDJHdlTDjTDhxgua-99" value="nota maior ou igual a media" style="whiteSpace=wrap;html=1;" vertex="1" parent="1">
          <mxGeometry x="1640" y="1560" width="160" height="80" as="geometry" />
        </mxCell>
        <mxCell id="324FYDJHdlTDjTDhxgua-101" value="" style="endArrow=classic;html=1;rounded=0;" edge="1" parent="1">
          <mxGeometry width="50" height="50" relative="1" as="geometry">
            <mxPoint x="1720" y="1650" as="sourcePoint" />
            <mxPoint x="1720" y="1710" as="targetPoint" />
          </mxGeometry>
        </mxCell>
        <mxCell id="324FYDJHdlTDjTDhxgua-102" value="" style="endArrow=classic;html=1;rounded=0;" edge="1" parent="1">
          <mxGeometry width="50" height="50" relative="1" as="geometry">
            <mxPoint x="1520" y="1530" as="sourcePoint" />
            <mxPoint x="1520" y="1710" as="targetPoint" />
          </mxGeometry>
        </mxCell>
        <mxCell id="324FYDJHdlTDjTDhxgua-103" value="nÃ£o aprovado" style="whiteSpace=wrap;html=1;" vertex="1" parent="1">
          <mxGeometry x="1440" y="1720" width="160" height="80" as="geometry" />
        </mxCell>
        <mxCell id="324FYDJHdlTDjTDhxgua-104" value="aprovado" style="whiteSpace=wrap;html=1;" vertex="1" parent="1">
          <mxGeometry x="1640" y="1720" width="160" height="80" as="geometry" />
        </mxCell>
        <mxCell id="324FYDJHdlTDjTDhxgua-106" value="" style="endArrow=none;html=1;rounded=0;" edge="1" parent="1">
          <mxGeometry width="50" height="50" relative="1" as="geometry">
            <mxPoint x="1520" y="1880" as="sourcePoint" />
            <mxPoint x="1520" y="1800" as="targetPoint" />
          </mxGeometry>
        </mxCell>
        <mxCell id="324FYDJHdlTDjTDhxgua-107" value="" style="endArrow=none;html=1;rounded=0;" edge="1" parent="1">
          <mxGeometry width="50" height="50" relative="1" as="geometry">
            <mxPoint x="1720" y="1880" as="sourcePoint" />
            <mxPoint x="1720" y="1800" as="targetPoint" />
          </mxGeometry>
        </mxCell>
        <mxCell id="324FYDJHdlTDjTDhxgua-108" value="" style="endArrow=none;html=1;rounded=0;" edge="1" parent="1">
          <mxGeometry width="50" height="50" relative="1" as="geometry">
            <mxPoint x="1520" y="1880" as="sourcePoint" />
            <mxPoint x="1720" y="1880" as="targetPoint" />
          </mxGeometry>
        </mxCell>
        <mxCell id="324FYDJHdlTDjTDhxgua-109" value="" style="endArrow=classic;html=1;rounded=0;" edge="1" parent="1">
          <mxGeometry width="50" height="50" relative="1" as="geometry">
            <mxPoint x="1620" y="1880" as="sourcePoint" />
            <mxPoint x="1620" y="1950" as="targetPoint" />
          </mxGeometry>
        </mxCell>
        <mxCell id="324FYDJHdlTDjTDhxgua-110" value="imprimir resultado" style="shape=document;whiteSpace=wrap;html=1;boundedLbl=1;size=0.3333333333333333;" vertex="1" parent="1">
          <mxGeometry x="1540" y="1960" width="170" height="90" as="geometry" />
        </mxCell>
        <mxCell id="324FYDJHdlTDjTDhxgua-111" value="" style="endArrow=classic;html=1;rounded=0;" edge="1" parent="1">
          <mxGeometry width="50" height="50" relative="1" as="geometry">
            <mxPoint x="1620" y="2050" as="sourcePoint" />
            <mxPoint x="1620" y="2110" as="targetPoint" />
          </mxGeometry>
        </mxCell>
        <mxCell id="324FYDJHdlTDjTDhxgua-112" value="" style="ellipse;whiteSpace=wrap;html=1;aspect=fixed;fillColor=#e51400;fontColor=#ffffff;strokeColor=#B20000;" vertex="1" parent="1">
          <mxGeometry x="1580" y="2120" width="80" height="80" as="geometry" />
        </mxCell>
        <mxCell id="324FYDJHdlTDjTDhxgua-113" value="" style="endArrow=classic;html=1;rounded=0;" edge="1" parent="1">
          <mxGeometry width="50" height="50" relative="1" as="geometry">
            <mxPoint x="160" y="-40" as="sourcePoint" />
            <mxPoint x="160" y="30" as="targetPoint" />
          </mxGeometry>
        </mxCell>
        <mxCell id="324FYDJHdlTDjTDhxgua-114" value="" style="endArrow=classic;html=1;rounded=0;" edge="1" parent="1">
          <mxGeometry width="50" height="50" relative="1" as="geometry">
            <mxPoint x="160" y="130" as="sourcePoint" />
            <mxPoint x="160" y="190" as="targetPoint" />
          </mxGeometry>
        </mxCell>
      </root>
    </mxGraphModel>
  </diagram>
</mxfile>
